<!-- Generated by IcoMoon.io -->
<svg version="1.1" xmlns="http://www.w3.org/2000/svg" width="16" height="16" viewBox="0 0 16 16">
<title>cat-dog</title>
<path fill="#fff" d="M10.728 11.646c0.168 0.259 0.211 0.586 0.184 0.906-0.016 0.171-0.085 0.296-0.274 0.328-0.096 0.018-0.198 0.067-0.274-0.022-0.080-0.094 0.002-0.178 0.046-0.264 0.214-0.413 0.096-0.789-0.325-0.965-0.366-0.154-0.714-0.317-0.931-0.672-0.045-0.074-0.125-0.142-0.219-0.118-0.098 0.027-0.11 0.133-0.12 0.218-0.014 0.136-0.010 0.272-0.014 0.41-0.019 0.522-0.286 0.92-0.634 1.277-0.075 0.077-0.178 0.128-0.293 0.117-0.15-0.016-0.226-0.085-0.13-0.232 0.075-0.112 0.162-0.221 0.258-0.317 0.301-0.309 0.163-0.627 0.032-0.95-0.118-0.296-0.336-0.416-0.645-0.386-0.173 0.019-0.349 0.010-0.522 0.058-0.419 0.118-0.523 0.33-0.326 0.714 0.134 0.261 0.267 0.52 0.267 0.826 0 0.259-0.226 0.411-0.47 0.318-0.122-0.046-0.168-0.13-0.053-0.21 0.184-0.133 0.154-0.29 0.059-0.434-0.186-0.285-0.389-0.562-0.594-0.834-0.074-0.098-0.195-0.128-0.315-0.13-0.411-0.006-0.818 0.038-1.211 0.173-0.277 0.094-0.446 0.272-0.462 0.574-0.003 0.067 0.003 0.136-0.048 0.194-0.045 0.053-0.096 0.107-0.171 0.098-0.099-0.014-0.072-0.099-0.075-0.163-0.027-0.512 0.197-0.867 0.64-1.126 0.454-0.266 0.589-0.694 0.411-1.15-0.077-0.192-0.187-0.309-0.422-0.259-0.131 0.027-0.274 0.027-0.408 0.006-0.246-0.040-0.354-0.246-0.258-0.474 0.101-0.238 0.162-0.502 0.478-0.576 0.166-0.038 0.030-0.23 0.117-0.341 0.205 0.051 0.33 0.222 0.482 0.352 0.133 0.114 0.25 0.246 0.39 0.354 0.462 0.349 0.947 0.413 1.47 0.109 0.701-0.408 1.464-0.619 2.243-0.326 0.472 0.176 0.842 0.24 1.306-0.030 0.424-0.245 0.851 0.019 1.224 0.261 0.368 0.24 0.714 0.517 1.091 0.739 0.53 0.31 1.053 0.091 1.226-0.483 0.085-0.285 0.045-0.56-0.17-0.76-0.23-0.214-0.526-0.296-0.843-0.221-0.163 0.038-0.264 0.155-0.298 0.325 0.021 0.011 0.037 0.026 0.056 0.027 0.192 0.027 0.387 0.062 0.358 0.32-0.019 0.162-0.341 0.298-0.538 0.243-0.437-0.12-0.592-0.718-0.283-1.080 0.278-0.323 0.989-0.418 1.541-0.205 0.493 0.19 0.779 0.584 0.771 1.066-0.013 0.938-0.982 1.59-1.866 1.259-0.426-0.16-0.798-0.405-1.155-0.682-0.16-0.126-0.318-0.258-0.509-0.344-0.206-0.093-0.411-0.123-0.624-0.029-0.32 0.142-0.338 0.307-0.195 0.618 0.31 0.656 0.627 1.296 1.022 1.896zM3.771 7.864c0.024-0.098 0.115-0.002 0.165 0.026 0.362 0.184 0.648 0.466 0.95 0.73 0.507 0.442 0.888 0.539 1.528 0.174 0.867-0.496 1.795-0.557 2.718-0.114 0.138 0.067 0.232 0.038 0.347-0.032 0.403-0.258 0.835-0.323 1.283-0.141 0.213 0.085 0.411 0.205 0.64 0.322-0.12-0.64 0.158-1.032 0.728-1.251-0.291-0.424-0.667-0.733-1.109-0.955-0.939-0.475-1.949-0.576-2.966-0.445-1.256 0.163-2.419 0.053-3.39-0.846-0.491-0.458-0.987-0.918-1.122-1.629-0.043-0.227-0.165-0.434-0.312-0.618h-0.058c-0.114 0.206-0.219 0.424-0.219 0.659 0 0.179-0.082 0.23-0.226 0.27-0.31 0.083-0.616 0.221-0.694 0.558-0.056 0.226-0.19 0.325-0.36 0.414-0.155 0.082-0.315 0.158-0.483 0.206-0.246 0.072-0.229 0.197-0.098 0.36 0.24 0.296 0.563 0.421 0.931 0.408 0.218-0.008 0.336 0.074 0.437 0.254 0.333 0.587 0.728 1.133 1.15 1.658 0.034 0.035 0.098 0.245 0.158-0.010zM12.597 9.338c0.13 0.082 0.286 0.301 0.477 0.114 0.192-0.19 0.258-0.445 0.15-0.696-0.109-0.259-0.362-0.285-0.606-0.307 0.19 0.224 0.259 0.445 0.086 0.699-0.040 0.062-0.227 0.11-0.107 0.19zM13.006 10.659c-0.056-0.090-0.112-0.136-0.23-0.138-0.462 0-0.882-0.157-1.262-0.41-0.325-0.216-0.637-0.451-0.957-0.672-0.157-0.107-0.325-0.184-0.522-0.107-0.158 0.062-0.229 0.13-0.12 0.323 0.242 0.427 0.6 0.715 1.018 0.939 0.398 0.211 0.576 0.544 0.563 0.978-0.006 0.219-0.016 0.456-0.298 0.539-0.094 0.027-0.093 0.472-0.008 0.517 0.155 0.082 0.685-0.154 0.736-0.344 0.144-0.526 0.259-1.059 0.086-1.693 0.482 0.387 0.851 0.77 1.122 1.237 0.152 0.262 0.094 0.37-0.198 0.474-0.131 0.045-0.194 0.139-0.182 0.266 0.013 0.131 0.13 0.123 0.227 0.126 0.216 0.006 0.427-0.008 0.64-0.053 0.344-0.072 0.438-0.259 0.258-0.563-0.285-0.475-0.584-0.944-0.872-1.419zM14.842 9.24c-0.133-0.058-0.261-0.12-0.398-0.171-0.086-0.032-0.178-0.038-0.186 0.098-0.013 0.208-0.102 0.39-0.21 0.584 0.336 0.021 0.726-0.27 0.954-0.451l-0.16-0.059z"></path>
</svg>
